<?xml version="1.0" standalone="no"?>
<!DOCTYPE svg PUBLIC "-//W3C//DTD SVG 20010904//EN"
 "http://www.w3.org/TR/2001/REC-SVG-20010904/DTD/svg10.dtd">
<svg version="1.0" xmlns="http://www.w3.org/2000/svg"
 width="512.000000pt" height="512.000000pt" viewBox="0 0 512.000000 512.000000"
 preserveAspectRatio="xMidYMid meet">
<metadata>
Created by potrace 1.14, written by Peter Selinger 2001-2017
</metadata>
<g transform="translate(0.000000,512.000000) scale(0.100000,-0.100000)"
fill="#000000" stroke="none">
<path d="M2931 4018 c-190 -27 -360 -124 -531 -304 -46 -49 -183 -190 -303
-314 l-218 -225 123 -120 c68 -65 184 -179 259 -252 l136 -133 -43 -35 c-152
-125 -393 -176 -590 -124 -223 58 -393 213 -477 433 -30 78 -32 87 -32 231 0
139 2 156 28 225 39 106 82 173 162 255 128 130 275 196 458 203 127 5 211
-11 323 -63 l72 -33 53 55 c63 63 64 60 -56 118 -162 78 -384 103 -555 61
-155 -38 -325 -137 -426 -249 -237 -261 -289 -627 -135 -942 229 -467 820
-616 1244 -312 34 25 134 119 222 208 87 90 231 237 319 327 l161 163 -264
257 -264 258 39 30 c174 137 425 184 629 118 296 -97 491 -365 488 -669 -2
-175 -65 -331 -184 -459 -83 -89 -168 -146 -280 -188 -80 -30 -91 -32 -224
-32 -149 0 -198 10 -318 71 -56 28 -59 26 -118 -48 l-29 -37 36 -21 c144 -85
338 -127 506 -110 118 12 190 33 293 83 301 149 481 458 462 796 -20 340 -238
630 -559 741 -136 46 -262 58 -407 37z m-341 -321 c0 -1 -24 -25 -52 -52 l-53
-50 50 53 c46 48 55 57 55 49z m111 -310 l203 -197 -105 -108 c-57 -59 -138
-142 -179 -185 -71 -74 -201 -190 -152 -136 l23 26 -201 193 c-110 106 -199
196 -198 200 6 15 392 410 399 408 3 -2 98 -92 210 -201z"/>
<path d="M3712 2058 l3 -213 43 -3 c37 -3 42 -1 42 18 l0 21 26 -20 c31 -24
104 -28 144 -8 46 23 70 73 70 144 0 70 -15 105 -57 137 -41 31 -92 32 -135 2
l-38 -25 0 79 0 80 -50 0 -51 0 3 -212z m205 7 c48 -34 37 -123 -18 -146 -26
-10 -34 -9 -57 8 -21 16 -28 30 -30 65 -3 40 1 49 24 67 32 25 52 26 81 6z"/>
<path d="M1130 2050 l0 -210 151 0 150 0 -3 43 -3 42 -102 3 -103 3 0 164 0
165 -45 0 -45 0 0 -210z"/>
<path d="M2910 2050 l0 -210 45 0 45 0 0 85 0 85 85 0 85 0 0 -85 0 -85 50 0
50 0 0 210 0 210 -50 0 -50 0 0 -80 0 -80 -85 0 -85 0 0 80 0 80 -45 0 -45 0
0 -210z"/>
<path d="M1523 2139 c-59 -29 -83 -71 -83 -147 0 -51 4 -66 26 -92 37 -44 75
-60 140 -60 60 0 115 25 134 60 9 16 5 20 -27 29 -30 9 -40 8 -55 -6 -26 -23
-87 -22 -104 2 -30 41 -20 45 102 45 l117 0 -7 46 c-8 59 -39 102 -90 125 -54
24 -101 24 -153 -2z m127 -71 c11 -12 20 -25 20 -29 0 -9 -130 -16 -136 -8 -2
4 6 18 17 33 26 33 70 35 99 4z"/>
<path d="M1890 2153 c-89 -35 -82 -29 -65 -63 15 -29 17 -30 38 -15 28 20 101
20 121 -1 31 -31 19 -40 -48 -40 -51 1 -71 -4 -93 -20 -60 -45 -67 -101 -18
-150 31 -31 105 -33 152 -4 32 19 33 19 43 0 8 -15 21 -20 50 -20 40 0 40 0
40 39 0 22 -4 43 -10 46 -5 3 -10 36 -10 73 0 75 -12 106 -52 135 -27 20 -117
33 -148 20z m84 -173 c36 -13 34 -46 -5 -66 -37 -19 -75 -12 -84 16 -8 24 0
39 29 50 28 12 31 12 60 0z"/>
<path d="M2294 2141 c-18 -11 -34 -25 -37 -33 -3 -7 -6 -1 -6 15 -1 25 -4 27
-46 27 l-45 0 0 -156 0 -155 48 3 47 3 5 100 c5 94 6 100 30 112 14 7 35 13
48 13 19 0 22 5 22 45 0 52 -14 58 -66 26z"/>
<path d="M2527 2136 c-44 -22 -47 -22 -47 -5 0 15 -8 19 -40 19 l-40 0 0 -155
0 -155 45 0 45 0 0 94 c0 93 0 95 31 120 36 30 42 31 63 10 13 -12 16 -38 16
-120 l0 -104 50 0 50 0 0 115 c0 131 -14 179 -55 195 -40 15 -67 12 -118 -14z"/>
<path d="M3340 2034 c0 -172 20 -203 126 -191 27 3 55 13 68 26 l23 21 11 -25
c10 -21 19 -25 52 -25 40 0 40 0 40 39 0 22 -4 43 -10 46 -6 4 -10 53 -10 116
l0 109 -45 0 -45 0 0 -89 c0 -105 -3 -117 -41 -136 -59 -31 -79 3 -79 136 l0
89 -45 0 -45 0 0 -116z"/>
<path d="M3010 1620 c0 -49 -2 -90 -4 -90 -3 0 -17 11 -32 25 -89 83 -224 8
-224 -124 0 -40 40 -110 71 -126 46 -24 122 -19 157 10 37 31 42 31 42 1 0
-13 7 -27 16 -30 14 -5 16 -1 10 25 -3 17 -6 114 -6 215 0 157 -2 184 -15 184
-12 0 -15 -17 -15 -90z m-40 -86 c38 -35 40 -39 40 -98 0 -35 -6 -69 -12 -78
-42 -51 -116 -63 -163 -26 -29 23 -55 74 -55 109 0 36 32 90 64 110 47 29 80
24 126 -17z"/>
<path d="M3380 1685 c0 -16 6 -25 15 -25 9 0 15 9 15 25 0 16 -6 25 -15 25 -9
0 -15 -9 -15 -25z"/>
<path d="M1202 1685 c-68 -30 -81 -144 -19 -173 15 -8 60 -22 100 -33 40 -11
82 -30 95 -41 27 -26 29 -68 3 -99 -17 -21 -28 -24 -93 -24 -59 0 -80 4 -110
23 -39 24 -66 13 -32 -13 35 -27 86 -37 159 -33 95 4 125 28 125 98 0 64 -26
87 -137 116 -93 25 -123 47 -123 91 0 33 40 70 85 79 41 7 106 -8 129 -31 12
-13 15 -13 20 1 3 9 6 17 6 19 0 1 -18 10 -40 19 -49 20 -124 20 -168 1z"/>
<path d="M1758 1638 c-3 -48 -6 -53 -28 -57 l-25 -4 25 -6 c25 -7 25 -8 28
-131 1 -73 7 -129 14 -137 13 -16 105 -14 100 2 -2 6 -14 9 -28 7 -48 -7 -54
10 -54 139 l0 118 38 4 37 4 -37 1 -38 2 0 55 c0 41 -4 55 -14 55 -11 0 -16
-15 -18 -52z"/>
<path d="M2180 1472 c0 -99 3 -122 20 -149 18 -30 24 -33 70 -33 54 0 104 19
113 45 10 26 27 17 27 -15 0 -23 4 -30 20 -30 21 0 27 15 10 25 -6 4 -10 60
-10 135 0 104 -3 129 -15 134 -13 5 -15 -10 -15 -99 0 -97 -2 -105 -26 -134
-46 -55 -129 -58 -153 -5 -6 14 -11 71 -11 128 0 83 -3 105 -15 110 -13 5 -15
-12 -15 -112z"/>
<path d="M3393 1583 c-10 -3 -13 -43 -13 -149 0 -121 2 -144 15 -144 13 0 15
23 15 150 0 83 -1 150 -2 149 -2 0 -9 -3 -15 -6z"/>
<path d="M3830 1583 c-78 -25 -109 -81 -102 -185 1 -16 18 -44 40 -68 37 -38
42 -40 96 -40 105 0 150 44 151 147 0 47 -5 68 -21 90 -36 49 -110 74 -164 56z
m90 -28 c15 -8 38 -30 49 -48 54 -88 -4 -197 -104 -197 -30 0 -44 7 -70 35
-59 62 -55 137 11 195 38 33 70 38 114 15z"/>
</g>
</svg>
